<svg xmlns="http://www.w3.org/2000/svg" viewBox="0 0 1200 675" role="img" aria-labelledby="title desc">
  <title id="title">Stylized news dashboard illustration</title>
  <desc id="desc">An abstract editorial dashboard with layered cards, charts, and highlights.</desc>
  <defs>
    <linearGradient id="bg" x1="0" y1="0" x2="1" y2="1">
      <stop offset="0%" stop-color="#f7e8d8"/>
      <stop offset="50%" stop-color="#f3c9b1"/>
      <stop offset="100%" stop-color="#db8f79"/>
    </linearGradient>
    <linearGradient id="card" x1="0" y1="0" x2="1" y2="1">
      <stop offset="0%" stop-color="#ffffff"/>
      <stop offset="100%" stop-color="#f8f1e9"/>
    </linearGradient>
  </defs>
  <rect width="1200" height="675" fill="url(#bg)"/>
  <circle cx="1030" cy="140" r="145" fill="#fff1c9" opacity="0.52"/>
  <rect x="90" y="84" width="640" height="510" rx="40" fill="url(#card)" opacity="0.96"/>
  <rect x="150" y="150" width="350" height="28" rx="14" fill="#1f7a70" opacity="0.18"/>
  <rect x="150" y="204" width="500" height="20" rx="10" fill="#171717" opacity="0.18"/>
  <rect x="150" y="244" width="450" height="20" rx="10" fill="#171717" opacity="0.12"/>
  <rect x="150" y="308" width="240" height="180" rx="30" fill="#1f7a70" opacity="0.14"/>
  <rect x="420" y="308" width="240" height="180" rx="30" fill="#d95f43" opacity="0.14"/>
  <rect x="780" y="156" width="320" height="94" rx="30" fill="#ffffff" opacity="0.92"/>
  <rect x="780" y="280" width="320" height="94" rx="30" fill="#ffffff" opacity="0.84"/>
  <rect x="780" y="404" width="320" height="94" rx="30" fill="#ffffff" opacity="0.76"/>
  <circle cx="840" cy="202" r="24" fill="#1f7a70"/>
  <circle cx="840" cy="326" r="24" fill="#d95f43"/>
  <circle cx="840" cy="450" r="24" fill="#b94731"/>
  <rect x="888" y="190" width="166" height="18" rx="9" fill="#171717" opacity="0.16"/>
  <rect x="888" y="314" width="142" height="18" rx="9" fill="#171717" opacity="0.16"/>
  <rect x="888" y="438" width="150" height="18" rx="9" fill="#171717" opacity="0.16"/>
  <path d="M178 524h340" stroke="#1f7a70" stroke-width="12" stroke-linecap="round" opacity="0.25"/>
  <path d="M178 484l66-46 72 28 72-80 138 36" stroke="#d95f43" stroke-width="10" fill="none" stroke-linecap="round" stroke-linejoin="round" opacity="0.78"/>
</svg>
