<svg xmlns="http://www.w3.org/2000/svg" viewBox="0 0 1600 900" role="img" aria-labelledby="title desc">
  <title id="title">Stylized news dashboard illustration</title>
  <desc id="desc">An abstract editorial dashboard with layered cards, charts, and highlights.</desc>
  <defs>
    <linearGradient id="bg" x1="0" y1="0" x2="1" y2="1">
      <stop offset="0%" stop-color="#f7e8d8"/>
      <stop offset="50%" stop-color="#f3c9b1"/>
      <stop offset="100%" stop-color="#db8f79"/>
    </linearGradient>
    <linearGradient id="card" x1="0" y1="0" x2="1" y2="1">
      <stop offset="0%" stop-color="#ffffff"/>
      <stop offset="100%" stop-color="#f8f1e9"/>
    </linearGradient>
  </defs>
  <rect width="1600" height="900" fill="url(#bg)"/>
  <circle cx="1350" cy="180" r="180" fill="#fff1c9" opacity="0.52"/>
  <rect x="120" y="110" width="840" height="680" rx="52" fill="url(#card)" opacity="0.96"/>
  <rect x="200" y="198" width="462" height="36" rx="18" fill="#1f7a70" opacity="0.18"/>
  <rect x="200" y="270" width="660" height="26" rx="13" fill="#171717" opacity="0.18"/>
  <rect x="200" y="318" width="598" height="26" rx="13" fill="#171717" opacity="0.12"/>
  <rect x="200" y="396" width="300" height="240" rx="36" fill="#1f7a70" opacity="0.14"/>
  <rect x="530" y="396" width="300" height="240" rx="36" fill="#d95f43" opacity="0.14"/>
  <rect x="1020" y="210" width="420" height="120" rx="40" fill="#ffffff" opacity="0.92"/>
  <rect x="1020" y="366" width="420" height="120" rx="40" fill="#ffffff" opacity="0.84"/>
  <rect x="1020" y="522" width="420" height="120" rx="40" fill="#ffffff" opacity="0.76"/>
  <circle cx="1100" cy="270" r="32" fill="#1f7a70"/>
  <circle cx="1100" cy="426" r="32" fill="#d95f43"/>
  <circle cx="1100" cy="582" r="32" fill="#b94731"/>
  <rect x="1166" y="254" width="188" height="22" rx="11" fill="#171717" opacity="0.16"/>
  <rect x="1166" y="410" width="168" height="22" rx="11" fill="#171717" opacity="0.16"/>
  <rect x="1166" y="566" width="176" height="22" rx="11" fill="#171717" opacity="0.16"/>
  <path d="M214 680h420" stroke="#1f7a70" stroke-width="14" stroke-linecap="round" opacity="0.25"/>
  <path d="M214 628l82-58 90 34 90-100 174 46" stroke="#d95f43" stroke-width="12" fill="none" stroke-linecap="round" stroke-linejoin="round" opacity="0.78"/>
</svg>
