<svg xmlns="http://www.w3.org/2000/svg" viewBox="0 0 640 360" role="img" aria-labelledby="title desc">
  <title id="title">Stylized news dashboard illustration</title>
  <desc id="desc">An abstract editorial dashboard with layered cards, charts, and highlights.</desc>
  <defs>
    <linearGradient id="bg" x1="0" y1="0" x2="1" y2="1">
      <stop offset="0%" stop-color="#f7e8d8"/>
      <stop offset="50%" stop-color="#f3c9b1"/>
      <stop offset="100%" stop-color="#db8f79"/>
    </linearGradient>
    <linearGradient id="card" x1="0" y1="0" x2="1" y2="1">
      <stop offset="0%" stop-color="#ffffff"/>
      <stop offset="100%" stop-color="#f8f1e9"/>
    </linearGradient>
  </defs>
  <rect width="640" height="360" fill="url(#bg)"/>
  <circle cx="548" cy="80" r="80" fill="#fff1c9" opacity="0.52"/>
  <rect x="48" y="44" width="320" height="272" rx="28" fill="url(#card)" opacity="0.96"/>
  <rect x="76" y="72" width="182" height="20" rx="10" fill="#1f7a70" opacity="0.18"/>
  <rect x="76" y="108" width="244" height="14" rx="7" fill="#171717" opacity="0.18"/>
  <rect x="76" y="134" width="220" height="14" rx="7" fill="#171717" opacity="0.12"/>
  <rect x="76" y="168" width="128" height="90" rx="20" fill="#1f7a70" opacity="0.14"/>
  <rect x="218" y="168" width="128" height="90" rx="20" fill="#d95f43" opacity="0.14"/>
  <rect x="396" y="84" width="192" height="56" rx="20" fill="#ffffff" opacity="0.92"/>
  <rect x="396" y="154" width="192" height="56" rx="20" fill="#ffffff" opacity="0.84"/>
  <rect x="396" y="224" width="192" height="56" rx="20" fill="#ffffff" opacity="0.76"/>
  <circle cx="430" cy="112" r="14" fill="#1f7a70"/>
  <circle cx="430" cy="182" r="14" fill="#d95f43"/>
  <circle cx="430" cy="252" r="14" fill="#b94731"/>
  <rect x="458" y="104" width="102" height="12" rx="6" fill="#171717" opacity="0.16"/>
  <rect x="458" y="174" width="86" height="12" rx="6" fill="#171717" opacity="0.16"/>
  <rect x="458" y="244" width="92" height="12" rx="6" fill="#171717" opacity="0.16"/>
  <path d="M92 288h180" stroke="#1f7a70" stroke-width="8" stroke-linecap="round" opacity="0.25"/>
  <path d="M92 260l34-24 36 14 38-40 72 18" stroke="#d95f43" stroke-width="6" fill="none" stroke-linecap="round" stroke-linejoin="round" opacity="0.78"/>
</svg>
